<svg xmlns="http://www.w3.org/2000/svg" xmlns:xlink="http://www.w3.org/1999/xlink" width="215" height="68" viewBox="0 0 215 68"><defs><filter id="a" x="15" y="0" width="200" height="68" filterUnits="userSpaceOnUse"><feOffset dy="6" input="SourceAlpha"/><feGaussianBlur stdDeviation="4" result="b"/><feFlood flood-opacity="0.161"/><feComposite operator="in" in2="b"/><feComposite in="SourceGraphic"/></filter></defs><g transform="translate(0 6)"><g transform="matrix(1, 0, 0, 1, 0, -6)" filter="url(#a)"><text transform="translate(27 41)" fill="#fffcfc" font-size="36" font-family="Montserrat-Bold, Montserrat" font-weight="700" letter-spacing="-0.015em"><tspan x="0" y="0">Kittiwake</tspan></text></g><g transform="translate(2 18)" fill="#7b9a9f" stroke="#707070" stroke-width="1"><rect width="18" height="17" stroke="none"/><rect x="0.5" y="0.5" width="17" height="16" fill="none"/></g><g transform="translate(0 6)" fill="#90e9e9"><path d="M 20.92195129394531 12.5 L 1.078049182891846 12.5 L 11 0.7740581631660461 L 20.92195129394531 12.5 Z" stroke="none"/><path d="M 11 1.548128128051758 L 2.156108856201172 12 L 19.84389114379883 12 L 11 1.548128128051758 M 11 0 L 22 13 L 0 13 L 11 0 Z" stroke="none" fill="#707070"/></g><g transform="translate(8 24)" fill="#90e9e9" stroke="#707070" stroke-width="1"><rect width="7" height="11" rx="3.5" stroke="none"/><rect x="0.5" y="0.5" width="6" height="10" rx="3" fill="none"/></g></g></svg>