<svg xmlns="http://www.w3.org/2000/svg" xmlns:xlink="http://www.w3.org/1999/xlink" width="1920" height="166" viewBox="0 0 1920 166">
  <defs>
    <clipPath id="clip-path">
      <path id="Path_3" data-name="Path 3" d="M0,0H1920V166H0Z" fill="#eff6f6" stroke="#707070" stroke-width="1"/>
    </clipPath>
    <filter id="Kittiwake" x="931" y="55" width="200" height="68" filterUnits="userSpaceOnUse">
      <feOffset dy="6" input="SourceAlpha"/>
      <feGaussianBlur stdDeviation="4" result="blur"/>
      <feFlood flood-opacity="0.161"/>
      <feComposite operator="in" in2="blur"/>
      <feComposite in="SourceGraphic"/>
    </filter>
  </defs>
  <g id="logo" transform="translate(757 1)">
    <g id="Mask_Group_1" data-name="Mask Group 1" transform="translate(-757 -1)" clip-path="url(#clip-path)">
      <path id="house-damage" d="M23.239,9.733,5.606,26.052a3.642,3.642,0,0,1-.442.283V41.993a1.324,1.324,0,0,0,1.291,1.355H18.5l-3-6.165,8.4-5.418L19.039,21.671,30.985,33.252l-8.4,5.418,3.221,4.677H40.023a1.324,1.324,0,0,0,1.291-1.355V26.339a3.693,3.693,0,0,1-.425-.271ZM46.049,20l-4.736-4.388V4.064a1.324,1.324,0,0,0-1.291-1.355H34.859a1.324,1.324,0,0,0-1.291,1.355V8.441L25.4.872A3.148,3.148,0,0,0,23.239,0a3.113,3.113,0,0,0-2.155.87L.429,20a1.4,1.4,0,0,0-.1,1.914l1.726,2.017a1.25,1.25,0,0,0,1.824.1l18.5-17.128a1.247,1.247,0,0,1,1.708,0L42.6,24.036a1.25,1.25,0,0,0,1.824-.1l1.726-2.017a1.4,1.4,0,0,0-.1-1.913Z" transform="translate(897 56)" fill="#76bcba"/>
    </g>
    <g transform="matrix(1, 0, 0, 1, -757, -1)" filter="url(#Kittiwake)">
      <text id="Kittiwake-2" data-name="Kittiwake" transform="translate(943 96)" fill="#878686" font-size="36" font-family="Montserrat-Bold, Montserrat" font-weight="700" letter-spacing="-0.015em"><tspan x="0" y="0">Kittiwake</tspan></text>
    </g>
  </g>
</svg>
