<svg xmlns="http://www.w3.org/2000/svg" xmlns:xlink="http://www.w3.org/1999/xlink" width="231" height="70" viewBox="0 0 231 70">
  <defs>
    <filter id="Kittiwake" x="31" y="2" width="200" height="68" filterUnits="userSpaceOnUse">
      <feOffset dy="6" input="SourceAlpha"/>
      <feGaussianBlur stdDeviation="4" result="blur"/>
      <feFlood flood-opacity="0.161"/>
      <feComposite operator="in" in2="blur"/>
      <feComposite in="SourceGraphic"/>
    </filter>
  </defs>
  <g id="logo4" transform="translate(-134 -52)">
    <g transform="matrix(1, 0, 0, 1, 134, 52)" filter="url(#Kittiwake)">
      <text id="Kittiwake-2" data-name="Kittiwake" transform="translate(43 43)" fill="#919191" font-size="36" font-family="Montserrat-Bold, Montserrat" font-weight="700" letter-spacing="-0.015em"><tspan x="0" y="0">Kittiwake</tspan></text>
    </g>
    <path id="wi-sunrise" d="M3.3,18.432a1.179,1.179,0,0,1,.36-.828,1.291,1.291,0,0,1,.84-.348H7.3a1.062,1.062,0,0,1,.8.348,1.181,1.181,0,0,1,.324.828A1.206,1.206,0,0,1,8.1,19.3a1.081,1.081,0,0,1-.8.348H4.5a1.145,1.145,0,0,1-.84-.36A1.211,1.211,0,0,1,3.3,18.432Zm4-9.576a1.153,1.153,0,0,1,.312-.816,1.277,1.277,0,0,1,.852-.36,1.126,1.126,0,0,1,.816.348l1.968,1.98a1.246,1.246,0,0,1,.336.828,1.149,1.149,0,0,1-.324.84,1.088,1.088,0,0,1-.792.336,1.291,1.291,0,0,1-.84-.348L7.608,9.732A1.373,1.373,0,0,1,7.3,8.856Zm2.4,16.2a1.051,1.051,0,0,1,.348-.816,1.133,1.133,0,0,1,.816-.312h3.156l3.732-3.5a.324.324,0,0,1,.408,0l3.792,3.5h0c.324,0-.3.084-.072.312s-.66.5-.66.816-.764.612-.992.84a.607.607,0,0,1-.588.264l1.58.084a.71.71,0,0,1-.348-.084l-2.892-2.724L15.108,26.16a.609.609,0,0,1-.336.084H10.86a1.133,1.133,0,0,1-.828-.348A1.169,1.169,0,0,1,9.7,25.056Zm1.1-6.624a6.777,6.777,0,0,0,.744,3.168c.024.144.132.216.3.216H14.1a.2.2,0,0,0,.18-.1.228.228,0,0,0-.024-.228,4.745,4.745,0,0,1,.288-6.5,4.745,4.745,0,0,1,3.468-1.416,4.855,4.855,0,0,1,4.86,4.86,4.681,4.681,0,0,1-1.14,3.06.268.268,0,0,0-.036.228c.024.072.084.1.18.1h2.28a.247.247,0,0,0,.276-.216,6.259,6.259,0,0,0,.768-3.168,6.886,6.886,0,0,0-.576-2.784,7.462,7.462,0,0,0-1.536-2.292A7.321,7.321,0,0,0,20.8,11.82a6.917,6.917,0,0,0-2.784-.564,7.184,7.184,0,0,0-2.8.564,7.309,7.309,0,0,0-2.3,1.536,7.152,7.152,0,0,0-1.548,2.292A7.039,7.039,0,0,0,10.8,18.432ZM16.836,7.68V4.92a1.139,1.139,0,0,1,.336-.852,1.158,1.158,0,0,1,.852-.336,1.131,1.131,0,0,1,.84.336,1.185,1.185,0,0,1,.336.864v2.76a1.139,1.139,0,0,1-.336.852,1.158,1.158,0,0,1-.84.336,1.139,1.139,0,0,1-.852-.336A1.166,1.166,0,0,1,16.836,7.68Zm7.62,3.168a1.245,1.245,0,0,1,.324-.828l1.944-1.98a1.16,1.16,0,0,1,.84-.348,1.168,1.168,0,0,1,1.164,1.176,1.3,1.3,0,0,1-.312.876L26.4,11.676a1.245,1.245,0,0,1-.84.348,1.009,1.009,0,0,1-.792-.336A1.212,1.212,0,0,1,24.456,10.848Zm3.132,7.584a1.16,1.16,0,0,1,.324-.828,1.055,1.055,0,0,1,.792-.348h.933a1.9,1.9,0,0,1,1.118.348H27.9l.012.828c0,.336.228.612,0,.852a1.178,1.178,0,0,1-.864.36h0c-.324,0,.216-.12,0-.348S27.588,18.768,27.588,18.432Z" transform="translate(130.7 48.268)" fill="#6a8c8b"/>
    <g id="house-fill" transform="translate(141.877 61.284)">
      <path id="Path_3" data-name="Path 3" d="M18,7.409l13.5,13.5v9.466a3.375,3.375,0,0,1-3.375,3.375H7.875A3.375,3.375,0,0,1,4.5,30.375V20.909L18,7.409ZM29.25,5.625V13.5L24.75,9V5.625A1.125,1.125,0,0,1,25.875,4.5h2.25A1.125,1.125,0,0,1,29.25,5.625Z" transform="translate(0 1)" fill="#6a8c8b" fill-rule="evenodd"/>
      <path id="Path_4" data-name="Path 4" d="M16.409,3.375a2.25,2.25,0,0,1,3.181,0L34.546,18.329a1.126,1.126,0,1,1-1.593,1.593L18,4.966,3.046,19.921a1.126,1.126,0,0,1-1.593-1.593Z" fill="#6a8c8b" fill-rule="evenodd"/>
      <rect id="Rectangle_26" data-name="Rectangle 26" width="8" height="12" transform="translate(14.123 22.716)" fill="#eff6f6"/>
    </g>
  </g>
</svg>
